{
  "accessors": [
    {
      "bufferView": 0,
      "componentType": 5123,
      "count": 37185,
      "type": "SCALAR"
    },
    {
      "bufferView": 1,
      "componentType": 5126,
      "count": 6780,
      "max": [
        58.220703125,
        64.28076171875,
        55.24766540527344
      ],
      "min": [
        -58.220703125,
        -64.30058288574219,
        -55.243675231933594
      ],
      "type": "VEC3"
    },
    {
      "bufferView": 2,
      "componentType": 5126,
      "count": 6780,
      "type": "VEC3"
    },
    {
      "bufferView": 3,
      "componentType": 5126,
      "count": 6780,
      "max": [
        0.9755622744560242,
        0.9999881386756897
      ],
      "min": [
        0.0,
        0.0
      ],
      "type": "VEC2"
    },
    {
      "bufferView": 4,
      "componentType": 5123,
      "count": 11688,
      "type": "SCALAR"
    },
    {
      "bufferView": 5,
      "componentType": 5126,
      "count": 1978,
      "max": [
        19.223094940185547,
        16.116741180419922,
        41.65214538574219
      ],
      "min": [
        -19.222753524780273,
        -22.48565673828125,
        -0.314697265625
      ],
      "type": "VEC3"
    },
    {
      "bufferView": 6,
      "componentType": 5126,
      "count": 1978,
      "type": "VEC3"
    }
  ],
  "asset": {
    "generator": "HS glTF exporter for 3dsmax 1.53 (custom3dsmax@gmail.com)",
    "version": "2.0"
  },
  "bufferViews": [
    {
      "buffer": 0,
      "byteLength": 74372,
      "target": 34963
    },
    {
      "buffer": 0,
      "byteLength": 81360,
      "byteOffset": 74372,
      "target": 34962
    },
    {
      "buffer": 0,
      "byteLength": 81360,
      "byteOffset": 155732,
      "target": 34962
    },
    {
      "buffer": 0,
      "byteLength": 54240,
      "byteOffset": 237092,
      "target": 34962
    },
    {
      "buffer": 0,
      "byteLength": 23376,
      "byteOffset": 291332,
      "target": 34963
    },
    {
      "buffer": 0,
      "byteLength": 23736,
      "byteOffset": 314708,
      "target": 34962
    },
    {
      "buffer": 0,
      "byteLength": 23736,
      "byteOffset": 338444,
      "target": 34962
    }
  ],
  "buffers": [
    {
      "byteLength": 362180,
      "uri": "data:application/octet-stream;base64,"
    }
  ],
  "materials": [
    {
      "name": "Material #2",
      "pbrMetallicRoughness": {
        "baseColorFactor": [
          0.027450980618596077,
          0.027450980618596077,
          0.027450980618596077,
          1.0
        ],
        "metallicFactor": 0.0,
        "roughnessFactor": 0.15000000596046448
      }
    }
  ],
  "meshes": [
    {
      "name": "default002",
      "primitives": [
        {
          "attributes": {
            "NORMAL": 2,
            "POSITION": 1,
            "TEXCOORD_0": 3
          },
          "indices": 0,
          "mode": 4
        }
      ]
    },
    {
      "name": "Object3890",
      "primitives": [
        {
          "attributes": {
            "NORMAL": 6,
            "POSITION": 5
          },
          "indices": 4,
          "material": 0,
          "mode": 4
        }
      ]
    }
  ],
  "nodes": [
    {
      "matrix": [
        0.3794958293437958,
        0.0,
        0.0,
        0.0,
        0.0,
        0.0,
        -0.3794958293437958,
        0.0,
        0.0,
        0.4440077841281891,
        0.0,
        0.0,
        80.864501953125,
        64.08039855957031,
        -0.11421966552734375,
        1.0
      ],
      "mesh": 0,
      "name": "default002"
    },
    {
      "matrix": [
        1.145125150680542,
        -1.0340395206753783e-09,
        -1.3650958408106817e-07,
        0.0,
        -1.3131358400642057e-07,
        -0.014457954093813896,
        -1.1014214754104614,
        0.0,
        -8.248042249192622e-10,
        1.0191845893859863,
        -0.015153451822698116,
        0.0,
        80.86419677734375,
        -0.14578628540039063,
        -3.3271713256835938,
        1.0
      ],
      "mesh": 1,
      "name": "Object3890"
    }
  ],
  "scene": 0,
  "scenes": [
    {
      "nodes": [
        0,
        1
      ]
    }
  ]
}
